<svg width="38" height="25" viewBox="0 0 38 25" fill="none" xmlns="http://www.w3.org/2000/svg">
<g id="Frame" clip-path="url(#clip0_72_740)">
<g id="Group">
<path id="Vector" opacity="0.07" d="M35 0.0205078H3C1.3 0.0205078 0 1.32051 0 3.02051V21.0205C0 22.7205 1.4 24.0205 3 24.0205H35C36.7 24.0205 38 22.7205 38 21.0205V3.02051C38 1.32051 36.6 0.0205078 35 0.0205078Z" fill="black"/>
<path id="Vector_2" d="M35 1.02051C36.1 1.02051 37 1.92051 37 3.02051V21.0205C37 22.1205 36.1 23.0205 35 23.0205H3C1.9 23.0205 1 22.1205 1 21.0205V3.02051C1 1.92051 1.9 1.02051 3 1.02051H35Z" fill="#006FCF"/>
<path id="Vector_3" d="M8.971 10.2885L9.745 12.1645H8.203L8.971 10.2885ZM25.046 10.3665H22.069V11.1935H24.998V12.4325H22.075V13.3545H25.052V14.0935L27.129 11.8485L25.052 9.50851L25.046 10.3665ZM10.983 8.02651H14.978L15.865 9.96151L16.687 8.02051H27.057L28.135 9.21051L29.25 8.02051H34.013L30.494 11.8725L33.977 15.7005H29.143L28.065 14.5105L26.94 15.7005H10.03L9.536 14.5105H8.406L7.911 15.7005H4L7.286 8.02051H10.716L10.983 8.02651ZM19.646 9.10451H17.407L15.907 12.6405L14.282 9.10451H12.06V13.9145L10 9.10451H8.007L5.625 14.6165H7.18L7.674 13.4265H10.27L10.764 14.6165H13.484V10.6815L15.235 14.6225H16.425L18.165 10.6935V14.6235H19.623L19.647 9.10351L19.646 9.10451ZM28.986 11.8725L31.517 9.10451H29.695L28.094 10.8305L26.546 9.10451H20.652V14.6225H26.462L28.076 12.8845L29.624 14.6225H31.499L28.986 11.8725Z" fill="white"/>
</g>
</g>
<defs>
<clipPath id="clip0_72_740">
<rect width="38" height="24" fill="white" transform="translate(0 0.0205078)"/>
</clipPath>
</defs>
</svg>
