<svg width="38" height="25" viewBox="0 0 38 25" fill="none" xmlns="http://www.w3.org/2000/svg">
<g id="Frame" clip-path="url(#clip0_72_745)">
<path id="Vector" d="M34.3872 0.0205078H3.61287C3.48468 0.0205078 3.35626 0.0205078 3.2283 0.0211873C3.12026 0.0220932 3.01245 0.0232257 2.90441 0.0261701C2.66909 0.0325118 2.43173 0.0465541 2.19935 0.0882283C1.9663 0.128156 1.74051 0.202582 1.52939 0.309056C1.10499 0.524919 0.760026 0.869882 0.544163 1.29429C0.4375 1.50548 0.363065 1.73146 0.323336 1.9647C0.281209 2.1973 0.267393 2.43444 0.261051 2.66953C0.258291 2.77747 0.25663 2.88544 0.256068 2.99341C0.255615 3.12115 0.255615 3.24935 0.255615 3.37777V20.663C0.255615 20.7914 0.255615 20.9194 0.256068 21.0478C0.256748 21.1556 0.258107 21.2637 0.261051 21.3717C0.267393 21.6063 0.281435 21.8437 0.323336 22.0761C0.362983 22.3093 0.437342 22.5353 0.543937 22.7465C0.651108 22.9574 0.790999 23.1501 0.958413 23.3173C1.12554 23.4847 1.31819 23.6246 1.52917 23.7317C1.74365 23.8411 1.96335 23.9107 2.19958 23.953C2.43173 23.9945 2.66909 24.0085 2.90441 24.0148C3.01245 24.0173 3.12026 24.0187 3.2283 24.0194C3.35626 24.0203 3.48468 24.0203 3.61287 24.0203H34.3872C34.5152 24.0203 34.6436 24.0203 34.7715 24.0194C34.8794 24.0189 34.9872 24.0173 35.0956 24.0148C35.3305 24.0085 35.5679 23.9945 35.8007 23.953C36.0338 23.913 36.2596 23.8385 36.4707 23.7317C36.8949 23.5156 37.2397 23.1707 37.4559 22.7465C37.5653 22.532 37.6346 22.3123 37.6765 22.0761C37.7186 21.8437 37.7322 21.6063 37.7386 21.3717C37.7415 21.2637 37.7431 21.1556 37.7435 21.0478C37.7444 20.9194 37.7444 20.7914 37.7444 20.663V3.37799C37.7444 3.24957 37.7444 3.12138 37.7435 2.99319C37.7431 2.88529 37.7414 2.7774 37.7386 2.66953C37.7322 2.43444 37.7186 2.1973 37.6765 1.9647C37.6371 1.73142 37.5627 1.50541 37.4559 1.29429C37.2399 0.869956 36.895 0.525021 36.4707 0.309056C36.2595 0.202692 36.0337 0.128344 35.8007 0.0884548C35.5679 0.0465541 35.3305 0.0327383 35.0956 0.0263965C34.9876 0.0236531 34.8796 0.0219921 34.7715 0.0214138C34.6436 0.0205078 34.5152 0.0205078 34.3872 0.0205078Z" fill="black"/>
<path id="Vector_2" d="M34.3871 0.820312L34.7658 0.820992C34.8682 0.821671 34.9708 0.822804 35.0739 0.825522C35.2535 0.830505 35.4632 0.840244 35.6589 0.87535C35.8288 0.905926 35.9714 0.952356 36.1082 1.02211C36.382 1.16131 36.6044 1.38395 36.7433 1.65787C36.8126 1.79377 36.8588 1.93555 36.8894 2.107C36.9243 2.30042 36.934 2.51083 36.9388 2.69135C36.9417 2.79327 36.9431 2.89519 36.9433 2.99937C36.9444 3.12553 36.9444 3.25145 36.9444 3.37784V20.6631C36.9444 20.7895 36.9444 20.9154 36.9435 21.044C36.9431 21.146 36.9417 21.2479 36.939 21.3498C36.934 21.5301 36.9243 21.7405 36.889 21.9362C36.8633 22.0919 36.814 22.2427 36.7429 22.3835C36.6037 22.6575 36.3809 22.8802 36.1069 23.0193C35.971 23.0886 35.8288 23.135 35.6605 23.1654C35.4609 23.2009 35.2421 23.2107 35.0775 23.2152C34.974 23.2174 34.8709 23.219 34.7652 23.2195C34.6395 23.2204 34.5131 23.2204 34.3871 23.2204H3.60786C3.48329 23.2204 3.35872 23.2204 3.23188 23.2195C3.12995 23.219 3.02803 23.2177 2.92612 23.2154C2.75761 23.2109 2.53882 23.2009 2.34087 23.1656C2.18436 23.1395 2.03271 23.0899 1.89106 23.0184C1.7552 22.9493 1.63119 22.8591 1.5237 22.7511C1.41587 22.6435 1.32581 22.5194 1.25689 22.3835C1.18572 22.2419 1.13639 22.0903 1.11058 21.9339C1.07525 21.7385 1.06528 21.529 1.06075 21.35C1.05819 21.2478 1.05668 21.1455 1.05622 21.0431L1.05554 20.7426V3.29856L1.05599 2.99847C1.05646 2.896 1.05797 2.79355 1.06052 2.69112C1.06551 2.51174 1.07525 2.30224 1.11081 2.10519C1.13666 1.94911 1.18599 1.79784 1.25712 1.65651C1.32597 1.52107 1.41566 1.39741 1.52438 1.28892C1.63213 1.181 1.75627 1.0908 1.8922 1.02166C2.03349 0.950675 2.18467 0.901352 2.34065 0.87535C2.53656 0.840244 2.74652 0.830505 2.92635 0.825522C3.02872 0.822804 3.13132 0.821671 3.23302 0.820992L3.61284 0.820312H34.3871Z" fill="white"/>
<g id="Group">
<g id="Group_2">
<path id="Vector_3" d="M10.1098 8.12222C10.4278 7.72473 10.6434 7.1909 10.5865 6.64551C10.1213 6.66861 9.55376 6.9524 9.22489 7.35034C8.92978 7.69098 8.66863 8.24702 8.73658 8.76953C9.25886 8.81483 9.7807 8.50861 10.1098 8.12222Z" fill="black"/>
<path id="Vector_4" d="M10.5806 8.87169C9.82187 8.8264 9.17727 9.30203 8.81512 9.30203C8.45273 9.30203 7.89806 8.89434 7.29809 8.90544C6.51738 8.91677 5.79306 9.35842 5.39671 10.0605C4.58179 11.4648 5.18154 13.5485 5.97425 14.6923C6.35906 15.2585 6.82291 15.8813 7.43398 15.8589C8.01153 15.8363 8.23779 15.4852 8.93946 15.4852C9.6409 15.4852 9.84474 15.8589 10.456 15.8476C11.0898 15.8363 11.4861 15.2814 11.8709 14.7151C12.3126 14.0696 12.4931 13.4468 12.5044 13.4128C12.4931 13.4015 11.2823 12.937 11.2709 11.544C11.2596 10.3776 12.2218 9.82273 12.267 9.78853C11.7237 8.98494 10.8748 8.89434 10.5804 8.87169" fill="black"/>
</g>
<g id="Group_3">
<path id="Vector_5" d="M18.1422 7.29346C19.7906 7.29346 20.9386 8.42976 20.9386 10.084C20.9386 11.7442 19.767 12.8864 18.101 12.8864H16.2759V15.7891H14.9573V7.29346H18.1422ZM16.2759 11.7795H17.7889C18.9372 11.7795 19.5904 11.1615 19.5904 10.0899C19.5904 9.01863 18.9369 8.4062 17.7947 8.4062H16.2759V11.7795Z" fill="black"/>
<path id="Vector_6" d="M21.2657 14.0285C21.2657 12.9393 22.0958 12.3154 23.6265 12.2211L25.269 12.121V11.6499C25.269 10.9614 24.8157 10.5845 24.0092 10.5845C23.3438 10.5845 22.8609 10.9259 22.7613 11.4497H21.5717C21.6073 10.349 22.6433 9.54834 24.0446 9.54834C25.5516 9.54834 26.5348 10.3372 26.5348 11.5618V15.7888H25.3163V14.7703H25.2868C24.9394 15.4355 24.1739 15.8534 23.3438 15.8534C22.1194 15.8534 21.2657 15.1236 21.2657 14.0285ZM25.269 13.4811V13.0041L23.8031 13.0983C22.9787 13.1513 22.5493 13.4573 22.5493 13.993C22.5493 14.5112 22.9966 14.8468 23.6971 14.8468C24.5918 14.8468 25.269 14.2756 25.269 13.4811Z" fill="black"/>
<path id="Vector_7" d="M27.6552 18.0613V17.043C27.7376 17.0545 27.9376 17.0663 28.0436 17.0663C28.6263 17.0663 28.9561 16.8195 29.1563 16.1832L29.2741 15.8066L27.0427 9.625H28.4202L29.9746 14.6408H30.0041L31.5583 9.625H32.9007L30.5868 16.1185C30.0569 17.6081 29.4505 18.0969 28.1672 18.0969C28.0671 18.0969 27.7433 18.0851 27.6552 18.0613Z" fill="black"/>
</g>
</g>
</g>
<defs>
<clipPath id="clip0_72_745">
<rect width="38" height="24" fill="white" transform="translate(0 0.0205078)"/>
</clipPath>
</defs>
</svg>
