<svg width="38" height="25" viewBox="0 0 38 25" fill="none" xmlns="http://www.w3.org/2000/svg">
<g id="Frame" clip-path="url(#clip0_72_756)">
<path id="Vector" opacity="0.07" d="M35 0.0205078H3C1.3 0.0205078 0 1.32051 0 3.02051V21.0205C0 22.7205 1.4 24.0205 3 24.0205H35C36.7 24.0205 38 22.7205 38 21.0205V3.02051C38 1.32051 36.6 0.0205078 35 0.0205078Z" fill="black"/>
<path id="Vector_2" d="M35 1.02051C36.1 1.02051 37 1.92051 37 3.02051V21.0205C37 22.1205 36.1 23.0205 35 23.0205H3C1.9 23.0205 1 22.1205 1 21.0205V3.02051C1 1.92051 1.9 1.02051 3 1.02051H35Z" fill="white"/>
<path id="Vector_3" d="M18.093 11.9967V15.1967H17.075V7.29674H19.766C20.0884 7.29128 20.4087 7.34961 20.7085 7.46836C21.0083 7.58712 21.2817 7.76397 21.513 7.98874C21.732 8.19313 21.9086 8.43869 22.0327 8.71137C22.1568 8.98406 22.2259 9.27853 22.2361 9.57794C22.2463 9.87735 22.1974 10.1758 22.0922 10.4564C21.987 10.7369 21.8275 10.9939 21.6229 11.2127L21.513 11.3287C21.043 11.7757 20.415 12.0187 19.766 12.0027L18.093 11.9967ZM18.093 8.26474V11.0527H19.791C20.168 11.0647 20.5319 10.9177 20.7959 10.6487C20.9848 10.4519 21.1116 10.2039 21.1606 9.93557C21.2096 9.66724 21.1786 9.39043 21.0715 9.13957C20.9644 8.88871 20.7859 8.67487 20.5582 8.52466C20.3305 8.37445 20.0637 8.29449 19.791 8.29474L18.093 8.26474ZM24.577 9.61274C25.2269 9.58274 25.863 9.80074 26.3549 10.2257C26.7999 10.6557 27.0369 11.2557 27.0049 11.8747V15.2087H26.0359V14.4427H25.9869C25.8132 14.73 25.5674 14.967 25.274 15.1303C24.9806 15.2936 24.6497 15.3775 24.3139 15.3737C23.7658 15.3915 23.2314 15.2011 22.818 14.8407C22.6221 14.681 22.4651 14.4787 22.3589 14.2494C22.2527 14.02 22.2001 13.7695 22.205 13.5167C22.1934 13.2613 22.243 13.0069 22.3496 12.7745C22.4563 12.5421 22.6168 12.3386 22.818 12.1807C23.3114 11.8259 23.9086 11.6448 24.516 11.6657C25.033 11.6457 25.546 11.7587 26.006 11.9967V11.7887C26.0093 11.6168 25.9735 11.4463 25.9013 11.2902C25.829 11.1341 25.7222 10.9965 25.589 10.8877C25.3213 10.6444 24.9706 10.5127 24.6089 10.5197C24.3463 10.5173 24.0873 10.5818 23.8565 10.7073C23.6257 10.8327 23.4307 11.0149 23.29 11.2367L22.395 10.6727C22.638 10.3245 22.9661 10.0443 23.348 9.85879C23.7299 9.67324 24.153 9.58854 24.577 9.61274ZM23.29 13.5407C23.2875 13.6703 23.317 13.7984 23.3758 13.9138C23.4346 14.0293 23.5208 14.1285 23.627 14.2027C23.85 14.3787 24.127 14.4717 24.412 14.4657C24.841 14.4647 25.252 14.2957 25.558 13.9937C25.863 13.7077 26.0359 13.3087 26.0359 12.8907C25.651 12.617 25.1832 12.4849 24.712 12.5167C24.346 12.5023 23.9851 12.6053 23.6819 12.8107C23.5619 12.8911 23.4634 12.9996 23.395 13.1269C23.3267 13.2542 23.2906 13.3963 23.29 13.5407ZM32.576 9.79074L29.186 17.5807H28.138L29.419 14.8527L27.195 9.79074H28.298L29.91 13.6757L31.479 9.79074H32.576Z" fill="#5F6368"/>
<path id="Vector_4" d="M13.986 11.3043C13.986 10.9963 13.962 10.6883 13.913 10.3843H9.62305V12.1313H12.074C12.0241 12.4089 11.9187 12.6736 11.7641 12.9096C11.6094 13.1455 11.4087 13.3478 11.174 13.5043V14.6383H12.638C13.0832 14.2076 13.4331 13.6884 13.6653 13.1141C13.8975 12.5399 14.0067 11.9233 13.986 11.3043Z" fill="#4285F4"/>
<path id="Vector_5" d="M9.62903 15.7415C10.7353 15.7718 11.8117 15.3795 12.639 14.6445L11.173 13.5045C10.8208 13.7303 10.4217 13.8729 10.006 13.9213C9.59043 13.9697 9.16924 13.9227 8.77451 13.7838C8.37978 13.645 8.02191 13.418 7.72812 13.12C7.43432 12.8221 7.21233 12.4611 7.07903 12.0645H5.57703V13.2345C5.95288 13.9875 6.53107 14.6209 7.24678 15.0637C7.96249 15.5066 8.78741 15.7412 9.62903 15.7415Z" fill="#34A853"/>
<path id="Vector_6" d="M7.07905 12.0705C6.88885 11.5078 6.88885 10.8982 7.07905 10.3355V9.16553H5.57705C5.25684 9.79698 5.08997 10.495 5.08997 11.203C5.08997 11.911 5.25684 12.6091 5.57705 13.2405L7.07905 12.0705Z" fill="#FBBC04"/>
<path id="Vector_7" d="M9.62903 8.4607C10.276 8.44888 10.9015 8.6933 11.369 9.1407L12.669 7.8477C11.8401 7.06971 10.7407 6.64535 9.60403 6.6647C8.76739 6.66889 7.94827 6.9047 7.23746 7.34598C6.52665 7.78725 5.95194 8.41676 5.57703 9.1647L7.07903 10.3357C7.25465 9.79578 7.59512 9.3245 8.05253 8.98817C8.50995 8.65183 9.0613 8.46736 9.62903 8.4607Z" fill="#EA4335"/>
</g>
<defs>
<clipPath id="clip0_72_756">
<rect width="38" height="24" fill="white" transform="translate(0 0.0205078)"/>
</clipPath>
</defs>
</svg>
