<svg width="38" height="25" viewBox="0 0 38 25" fill="none" xmlns="http://www.w3.org/2000/svg">
<g id="Frame" clip-path="url(#clip0_72_764)">
<g id="Group">
<path id="Vector" fill-rule="evenodd" clip-rule="evenodd" d="M35 0.0205078H3C1.3 0.0205078 0 1.32051 0 3.02051V21.0205C0 22.7205 1.4 24.0205 3 24.0205H35C36.7 24.0205 38 22.7205 38 21.0205V3.02051C38 1.32051 36.6 0.0205078 35 0.0205078Z" fill="#FFB3C7"/>
<path id="Vector_2" fill-rule="evenodd" clip-rule="evenodd" d="M35 1.02051C36.1 1.02051 37 1.92051 37 3.02051V21.0205C37 22.1205 36.1 23.0205 35 23.0205H3C1.9 23.0205 1 22.1205 1 21.0205V3.02051C1 1.92051 1.9 1.02051 3 1.02051H35Z" fill="#FFB3C7"/>
<path id="Vector_3" d="M34.117 13.2045C33.63 13.2045 33.235 13.6045 33.235 14.0965C33.235 14.5895 33.63 14.9895 34.117 14.9895C34.605 14.9895 35 14.5895 35 14.0965C35.0011 13.8612 34.9087 13.635 34.7431 13.4678C34.5775 13.3005 34.3523 13.2058 34.117 13.2045ZM31.214 12.5145C31.214 11.8385 30.644 11.2915 29.94 11.2915C29.236 11.2915 28.666 11.8385 28.666 12.5135C28.666 13.1885 29.236 13.7365 29.94 13.7365C30.644 13.7365 31.214 13.1885 31.214 12.5135V12.5145ZM31.219 10.1385H32.625V14.8885H31.219V14.5855C30.8095 14.8691 30.3231 15.0208 29.825 15.0205C28.456 15.0205 27.347 13.8985 27.347 12.5135C27.347 11.1295 28.457 10.0075 29.825 10.0075C30.342 10.0075 30.821 10.1675 31.219 10.4425V10.1385ZM19.966 10.7575V10.1385H18.526V14.8885H19.969V12.6715C19.969 11.9225 20.771 11.5215 21.328 11.5215H21.344V10.1395C20.774 10.1395 20.248 10.3865 19.966 10.7575ZM16.38 12.5135C16.38 11.8385 15.81 11.2915 15.106 11.2915C14.403 11.2915 13.832 11.8385 13.832 12.5135C13.832 13.1885 14.402 13.7365 15.106 13.7365C15.81 13.7365 16.38 13.1885 16.38 12.5135ZM16.385 10.1385H17.791V14.8885H16.385V14.5855C15.9752 14.8693 15.4885 15.021 14.99 15.0205C13.622 15.0205 12.512 13.8985 12.512 12.5135C12.512 11.1295 13.622 10.0075 14.99 10.0075C15.507 10.0075 15.987 10.1675 16.384 10.4425L16.385 10.1385ZM24.848 10.0105C24.287 10.0105 23.755 10.1875 23.4 10.6735V10.1385H22V14.8885H23.417V12.3925C23.417 11.6705 23.896 11.3165 24.472 11.3165C25.09 11.3165 25.445 11.6905 25.445 12.3825V14.8895H26.85V11.8685C26.85 10.7625 25.98 10.0105 24.848 10.0105ZM10.465 14.8905H11.937V8.02051H10.465V14.8885V14.8905ZM4 14.8905H5.558V8.02051H4V14.8905ZM9.45 8.02051C9.45395 8.74339 9.31529 9.45995 9.04194 10.1292C8.76859 10.7984 8.36592 11.4071 7.857 11.9205L10.011 14.8905H8.086L5.745 11.6625L6.349 11.2045C6.8417 10.8333 7.24085 10.3521 7.51465 9.79931C7.78845 9.24651 7.92931 8.63739 7.926 8.02051H9.45Z" fill="#0A0B09"/>
</g>
</g>
<defs>
<clipPath id="clip0_72_764">
<rect width="38" height="24" fill="white" transform="translate(0 0.0205078)"/>
</clipPath>
</defs>
</svg>
