<svg width="38" height="25" viewBox="0 0 38 25" fill="none" xmlns="http://www.w3.org/2000/svg">
<g id="Frame" clip-path="url(#clip0_72_775)">
<path id="Vector" opacity="0.07" d="M35 0.0205078H3C1.3 0.0205078 0 1.32051 0 3.02051V21.0205C0 22.7205 1.4 24.0205 3 24.0205H35C36.7 24.0205 38 22.7205 38 21.0205V3.02051C38 1.32051 36.6 0.0205078 35 0.0205078Z" fill="black"/>
<path id="Vector_2" d="M35 1.02051C36.1 1.02051 37 1.92051 37 3.02051V21.0205C37 22.1205 36.1 23.0205 35 23.0205H3C1.9 23.0205 1 22.1205 1 21.0205V3.02051C1 1.92051 1.9 1.02051 3 1.02051H35Z" fill="white"/>
<path id="Vector_3" d="M15 19.0205C18.866 19.0205 22 15.8865 22 12.0205C22 8.15451 18.866 5.02051 15 5.02051C11.134 5.02051 8 8.15451 8 12.0205C8 15.8865 11.134 19.0205 15 19.0205Z" fill="#EB001B"/>
<path id="Vector_4" d="M23 19.0205C26.866 19.0205 30 15.8865 30 12.0205C30 8.15451 26.866 5.02051 23 5.02051C19.134 5.02051 16 8.15451 16 12.0205C16 15.8865 19.134 19.0205 23 19.0205Z" fill="#F79E1B"/>
<path id="Vector_5" d="M22 12.0203C22 9.62031 20.8 7.52031 19 6.32031C17.2 7.62031 16 9.72031 16 12.0203C16 14.3203 17.2 16.5203 19 17.7203C20.8 16.5203 22 14.4203 22 12.0203Z" fill="#FF5F00"/>
</g>
<defs>
<clipPath id="clip0_72_775">
<rect width="38" height="24" fill="white" transform="translate(0 0.0205078)"/>
</clipPath>
</defs>
</svg>
