<svg width="38" height="25" viewBox="0 0 38 25" fill="none" xmlns="http://www.w3.org/2000/svg">
<g id="Frame" clip-path="url(#clip0_72_781)">
<path id="Vector" opacity="0.07" d="M35 0.0205078H3C1.3 0.0205078 0 1.32051 0 3.02051V21.0205C0 22.7205 1.4 24.0205 3 24.0205H35C36.7 24.0205 38 22.7205 38 21.0205V3.02051C38 1.32051 36.6 0.0205078 35 0.0205078Z" fill="black"/>
<path id="Vector_2" d="M35 1.02051C36.1 1.02051 37 1.92051 37 3.02051V21.0205C37 22.1205 36.1 23.0205 35 23.0205H3C1.9 23.0205 1 22.1205 1 21.0205V3.02051C1 1.92051 1.9 1.02051 3 1.02051H35Z" fill="#5A31F4"/>
<path id="Vector_3" d="M21.3821 9.73356C21.3821 11.4016 20.2051 12.5916 18.5611 12.5916H17.0121C16.9865 12.5919 16.9616 12.5997 16.9403 12.6139C16.919 12.6281 16.9023 12.6481 16.8921 12.6716C16.8856 12.6871 16.8822 12.7037 16.8821 12.7206V14.9126C16.8821 14.9296 16.8787 14.9464 16.8722 14.9622C16.8656 14.9779 16.8561 14.9921 16.844 15.0041C16.8319 15.0161 16.8175 15.0256 16.8018 15.032C16.786 15.0385 16.7691 15.0417 16.7521 15.0416H15.6681C15.6336 15.0416 15.6006 15.0279 15.5762 15.0035C15.5518 14.9791 15.5381 14.946 15.5381 14.9116V7.00656C15.5377 6.98081 15.5451 6.95553 15.5594 6.9341C15.5737 6.91267 15.5942 6.89609 15.6181 6.88656C15.6339 6.87993 15.6509 6.87653 15.6681 6.87656H18.5681C20.2051 6.87656 21.3821 8.06556 21.3821 9.73356ZM20.0301 9.73356C20.0301 8.77556 19.3721 8.07556 18.4801 8.07556H17.0121C16.995 8.07556 16.9781 8.07892 16.9624 8.08546C16.9466 8.09199 16.9323 8.10156 16.9202 8.11364C16.9081 8.12571 16.8985 8.14004 16.892 8.15581C16.8855 8.17158 16.8821 8.18849 16.8821 8.20556V11.2556C16.8819 11.2727 16.8852 11.2896 16.8917 11.3054C16.8982 11.3212 16.9079 11.3356 16.9201 11.3476C16.9322 11.3597 16.9465 11.3693 16.9623 11.3758C16.9781 11.3823 16.995 11.3856 17.0121 11.3856H18.4801C19.3721 11.3906 20.0301 10.6906 20.0301 9.73356ZM21.7041 13.5246C21.6927 13.2684 21.746 13.0134 21.859 12.7833C21.9721 12.5531 22.1413 12.3551 22.3511 12.2076C22.7741 11.8916 23.4351 11.7276 24.4061 11.6936L25.4391 11.6576V11.3546C25.4391 10.7476 25.0291 10.4916 24.3711 10.4916C23.7131 10.4916 23.2961 10.7226 23.2011 11.1016C23.193 11.1282 23.1764 11.1514 23.1538 11.1677C23.1312 11.1839 23.1039 11.1923 23.0761 11.1916H22.0541C22.026 11.1919 21.9985 11.1832 21.9758 11.1666C21.953 11.15 21.9363 11.1265 21.9281 11.0996C21.9227 11.0818 21.9213 11.063 21.9241 11.0446C22.0761 10.1466 22.8281 9.46456 24.4181 9.46456C26.1101 9.46456 26.7211 10.2476 26.7211 11.7406V14.9126C26.721 14.9297 26.7174 14.9467 26.7107 14.9625C26.704 14.9783 26.6942 14.9926 26.682 15.0045C26.6697 15.0165 26.6552 15.026 26.6392 15.0323C26.6233 15.0387 26.6063 15.0418 26.5891 15.0416H25.5591C25.5246 15.0416 25.4916 15.0279 25.4672 15.0035C25.4428 14.9791 25.4291 14.946 25.4291 14.9116V14.6756C25.4294 14.656 25.4238 14.6368 25.4129 14.6205C25.402 14.6042 25.3863 14.5917 25.3681 14.5846C25.3501 14.5775 25.3303 14.5758 25.3113 14.5797C25.2923 14.5836 25.2749 14.5929 25.2611 14.6066C24.9511 14.9406 24.4531 15.1816 23.6541 15.1816C22.4791 15.1816 21.7041 14.5746 21.7041 13.5246ZM25.4391 12.8376V12.5916L24.1001 12.6616C23.3951 12.6976 22.9851 12.9876 22.9851 13.4776C22.9851 13.9216 23.3611 14.1676 24.0191 14.1676C24.9121 14.1676 25.4391 13.6876 25.4391 12.8376ZM27.7551 17.4376V16.5186C27.7554 16.4993 27.7599 16.4803 27.7684 16.463C27.7768 16.4458 27.789 16.4306 27.8041 16.4186C27.8191 16.4065 27.8365 16.3978 27.8551 16.3931C27.8738 16.3885 27.8932 16.3879 27.9121 16.3916C28.0701 16.4206 28.2301 16.4356 28.3911 16.4356C28.6669 16.4507 28.9397 16.3725 29.1656 16.2135C29.3914 16.0546 29.5572 15.8242 29.6361 15.5596L29.7031 15.3486C29.7131 15.3201 29.7131 15.289 29.7031 15.2606L27.5581 9.78956C27.5457 9.75953 27.5449 9.72594 27.556 9.6954C27.5671 9.66486 27.5893 9.63959 27.6181 9.62456C27.6372 9.61449 27.6585 9.60933 27.6801 9.60956H28.7201C28.7468 9.60963 28.7728 9.61779 28.7948 9.63297C28.8168 9.64814 28.8336 9.66962 28.8431 9.69456L30.2991 13.5536C30.3081 13.5795 30.325 13.6019 30.3474 13.6177C30.3699 13.6335 30.3967 13.6418 30.4241 13.6416C30.4515 13.6415 30.4781 13.6331 30.5005 13.6173C30.5229 13.6016 30.5398 13.5793 30.5491 13.5536L31.8141 9.70556C31.8227 9.67903 31.8396 9.65596 31.8622 9.63975C31.8849 9.62355 31.9122 9.61507 31.9401 9.61556H33.0161C33.0484 9.61575 33.0795 9.62759 33.1038 9.6489C33.128 9.67021 33.1438 9.69957 33.1481 9.73156C33.1505 9.7529 33.1478 9.7745 33.1401 9.79456L30.8451 15.8706C30.3171 17.2836 29.4121 17.6436 28.4151 17.6436C28.2259 17.6488 28.0369 17.6265 27.8541 17.5776C27.8235 17.57 27.7965 17.5518 27.7782 17.5261C27.7598 17.5004 27.7523 17.469 27.7551 17.4376ZM8.5701 6.42056C7.2056 6.41036 5.88852 6.92067 4.8871 7.84756C4.84449 7.88631 4.81789 7.93959 4.81253 7.99694C4.80716 8.05429 4.82342 8.11157 4.8581 8.15756L5.4761 8.99656C5.49613 9.02485 5.52214 9.04838 5.55228 9.06548C5.58243 9.08259 5.61598 9.09284 5.65053 9.09551C5.68509 9.09819 5.71981 9.09321 5.75223 9.08095C5.78465 9.06869 5.81397 9.04943 5.8381 9.02456C6.19803 8.66716 6.62547 8.38495 7.09554 8.19438C7.56561 8.00381 8.06891 7.90869 8.5761 7.91456C10.6961 7.91456 11.8031 9.49856 11.8031 11.0646C11.8031 12.7646 10.6401 13.9626 8.9681 13.9856C7.6761 13.9856 6.7021 13.1356 6.7021 12.0116C6.70321 11.7273 6.7678 11.447 6.89116 11.1909C7.01452 10.9348 7.19353 10.7096 7.4151 10.5316C7.46228 10.4929 7.49223 10.4371 7.49841 10.3764C7.5046 10.3157 7.48651 10.255 7.4481 10.2076L6.7981 9.39256C6.77848 9.3675 6.75399 9.34667 6.72611 9.33133C6.69822 9.31598 6.66752 9.30643 6.63586 9.30325C6.60419 9.30008 6.5722 9.30334 6.54183 9.31284C6.51145 9.32235 6.48331 9.3379 6.4591 9.35856C6.061 9.6779 5.73918 10.0821 5.5171 10.5416C5.29582 11 5.18063 11.5025 5.1801 12.0116C5.1801 13.9466 6.8351 15.4636 8.9551 15.4756H8.9851C11.5021 15.4436 13.3221 13.5916 13.3221 11.0606C13.3221 8.81356 11.6551 6.42056 8.5701 6.42056Z" fill="white"/>
</g>
<defs>
<clipPath id="clip0_72_781">
<rect width="38" height="24" fill="white" transform="translate(0 0.0205078)"/>
</clipPath>
</defs>
</svg>
