<svg width="38" height="25" viewBox="0 0 38 25" fill="none" xmlns="http://www.w3.org/2000/svg">
<g id="Frame" clip-path="url(#clip0_72_785)">
<path id="Vector" d="M17.7 0.0205078V24.0205H10.5C9.2 24.0205 8.4 23.0205 8.7 21.7205L13.1 2.32051C13.4 1.02051 15 0.0205078 16.3 0.0205078H17.7ZM30.3 0.0205078C29 0.0205078 27.4 1.02051 27.1 2.32051L22.6 21.7205C22.3 23.0205 23.1 24.0205 24.4 24.0205H19.5V0.0205078H30.3Z" fill="#005B9A"/>
<path id="Vector_2" d="M16.3001 0.0205078C15.0001 0.0205078 13.4001 1.12051 13.1001 2.32051L8.7001 21.7205C8.4001 23.0205 9.2001 24.0205 10.5001 24.0205H1.6001C0.800098 24.0205 0.100098 23.4205 0.100098 22.6205V1.62051C0.100098 0.820508 0.800098 0.0205078 1.6001 0.0205078H16.3001Z" fill="#E9292D"/>
<path id="Vector_3" d="M30.2999 0.0205078C28.9999 0.0205078 27.3999 1.12051 27.0999 2.32051L22.6999 21.7205C22.3999 23.0205 23.1999 24.0205 24.4999 24.0205H9.99994H10.4999C9.19994 24.0205 8.39994 23.0205 8.69994 21.7205L13.0999 2.32051C13.3999 1.02051 14.9999 0.0205078 16.2999 0.0205078H30.2999Z" fill="#0E73B9"/>
<path id="Vector_4" d="M38.0001 1.62051V22.6205C38.0001 23.4205 37.4001 24.0205 36.5001 24.0205H24.4001C23.1001 24.0205 22.3001 22.9205 22.6001 21.7205L27.1001 2.32051C27.4001 1.02051 29.0001 0.0205078 30.3001 0.0205078H36.5001C37.4001 0.0205078 38.0001 0.720508 38.0001 1.62051Z" fill="#059DA4"/>
<path id="Vector_5" d="M14.8779 13.6654H15.0179C15.1579 13.6654 15.2979 13.5954 15.2979 13.5254L15.7179 12.8954H16.9079L16.6979 13.2454H18.0979L17.8879 13.8754H16.2079C15.9979 14.1554 15.7879 14.2955 15.5079 14.2955H14.6679L14.8779 13.6654ZM14.6679 14.5754H17.6779L17.4679 15.2754H16.2779L16.0679 15.9755H17.2579L17.0479 16.6754H15.8579L15.5779 17.7255C15.5079 17.8655 15.5779 18.0054 15.8579 17.9354H16.8379L16.6279 18.6355H14.7379C14.3879 18.6355 14.2479 18.4254 14.3879 18.0054L14.7379 16.6754H13.9679L14.1779 15.9755H14.9479L15.1579 15.2754H14.4579L14.6679 14.5754ZM19.4979 12.8254V13.2454C19.4979 13.2454 20.0579 12.8254 20.6179 12.8254H22.5779L21.8079 15.4854C21.7379 15.7654 21.4579 15.9755 21.0379 15.9755H18.7979L18.3079 17.8654C18.3079 17.9354 18.3079 18.0054 18.4479 18.0054H18.8679L18.7279 18.5654H17.6079C17.1879 18.5654 17.0479 18.4254 17.1179 18.2154L18.5879 12.8254H19.4979ZM21.1779 13.5954H19.4279L19.2179 14.2955C19.2179 14.2955 19.4979 14.0854 19.9879 14.0854H21.0379L21.1779 13.5954ZM20.5479 15.2754C20.6879 15.2754 20.7579 15.2755 20.7579 15.1355L20.8979 14.7854H19.1479L19.0079 15.3454L20.5479 15.2754ZM19.3579 16.1154H20.3379V16.5354H20.6179C20.7579 16.5354 20.8279 16.4654 20.8279 16.3954L20.8979 16.1154H21.7379L21.5979 16.6054C21.5279 16.9554 21.2479 17.0954 20.8279 17.1654H20.2679V17.9354C20.2679 18.0754 20.3379 18.1454 20.6179 18.1454H21.1079L20.9679 18.7055H19.7779C19.4279 18.7055 19.2879 18.5654 19.2879 18.2154L19.3579 16.1154ZM23.5579 13.6654L23.7679 12.8254H24.9579L24.8879 13.1054C24.8879 13.1054 25.4479 12.8254 25.9379 12.8254H27.4079L27.1979 13.6654H26.9879L25.8679 17.5154H26.0779L25.8679 18.2854H25.6579L25.5879 18.6355H24.3979L24.4679 18.2854H22.2979L22.5079 17.5154H22.7179L23.8379 13.6654H23.5579ZM24.8179 13.6654L24.5379 14.7154C24.5379 14.7154 25.0279 14.5054 25.4479 14.4354C25.5179 14.0854 25.6579 13.6654 25.6579 13.6654H24.8179ZM24.3279 15.2055L24.0479 16.3254C24.0479 16.3254 24.6079 16.0455 25.0279 16.0455C25.1679 15.6255 25.2379 15.2754 25.2379 15.2754L24.3279 15.2055ZM24.5379 17.5154L24.7479 16.7454H23.9079L23.6979 17.5154H24.5379ZM27.4079 12.8254H28.5279L28.5979 13.2454C28.5979 13.3154 28.6679 13.3855 28.8079 13.3855H29.0179L28.8079 14.0854H28.0379C27.7579 14.0854 27.5479 14.0154 27.5479 13.7354L27.4079 12.8254ZM27.0579 14.2955H30.6279L30.4179 15.0654H29.2279L29.0179 15.7654H30.1379L29.9279 16.5354H28.6679L28.3879 16.9555H29.0179L29.1579 17.7955C29.1579 17.8654 29.2279 17.9354 29.3679 17.9354H29.5779L29.3679 18.6355H28.6679C28.3179 18.6355 28.1079 18.5654 28.1079 18.2854L27.9679 17.5154L27.4079 18.3554C27.2679 18.5654 27.0579 18.7055 26.7779 18.7055H25.7279L25.9379 18.0054H26.2879C26.4279 18.0054 26.4979 17.9355 26.6379 17.7955L27.4779 16.5354H26.4279L26.6379 15.7654H27.8279L28.0379 15.0654H26.8479L27.0579 14.2955ZM7.31793 9.25545C7.17793 9.95545 6.89793 10.4455 6.40793 10.7955C5.91793 11.1455 5.28793 11.3554 4.51793 11.3554C3.81793 11.3554 3.25793 11.1455 2.97793 10.7955C2.76793 10.5155 2.62793 10.2354 2.62793 9.81545C2.62793 9.67545 2.62793 9.46545 2.69793 9.25545L3.53793 5.33545H4.72793L3.95793 9.25545V9.53545C3.95793 9.74545 4.02793 9.88545 4.09793 10.0254C4.23793 10.2354 4.44793 10.3054 4.79793 10.3054C5.14793 10.3054 5.49793 10.2354 5.70793 10.0254C5.91793 9.81545 6.12793 9.60545 6.19793 9.25545L6.96793 5.33545H8.15793L7.31793 9.25545ZM8.43793 7.71545H9.27793L9.20793 8.20545L9.34793 8.06545C9.62793 7.78545 9.97793 7.64545 10.3979 7.64545C10.7479 7.64545 11.0279 7.78545 11.1679 7.99545C11.3079 8.20545 11.3779 8.48545 11.3079 8.90545L10.8179 11.2854H9.90793L10.3279 9.11545C10.3979 8.83545 10.3979 8.62545 10.3279 8.55545C10.2579 8.41545 10.1179 8.41545 9.97793 8.41545C9.76793 8.41545 9.55793 8.48545 9.41793 8.62545C9.27793 8.76545 9.13793 8.97545 9.13793 9.25545L8.71793 11.2854H7.80793L8.43793 7.71545ZM18.2379 7.71545H19.0779L19.0079 8.20545L19.1479 8.06545C19.4279 7.78545 19.7779 7.64545 20.1979 7.64545C20.5479 7.64545 20.8279 7.78545 20.9679 7.99545C21.1079 8.20545 21.1779 8.48545 21.1079 8.90545L20.6179 11.2854H19.7079L20.1279 9.04545C20.1979 8.83545 20.1279 8.62545 20.0579 8.55545C19.9879 8.41545 19.8479 8.41545 19.7079 8.41545C19.4979 8.41545 19.2879 8.48545 19.1479 8.62545C19.0079 8.76545 18.8679 8.97545 18.8679 9.25545L18.4479 11.2854H17.5379L18.2379 7.71545ZM12.4279 7.71545H13.4079L12.6379 11.2154H11.6579L12.4279 7.71545ZM12.7779 6.38545H13.7579L13.5479 7.22545H12.5679L12.7779 6.38545ZM14.1779 10.9354C13.9679 10.7254 13.8279 10.3755 13.8279 9.95545V9.74545C13.8279 9.67545 13.8279 9.53545 13.8979 9.46545C14.0379 8.90545 14.2479 8.41545 14.5979 8.13545C14.9479 7.78545 15.4379 7.64545 15.9279 7.64545C16.3479 7.64545 16.6979 7.78545 16.9779 7.99545C17.1879 8.20545 17.3279 8.55545 17.3279 8.97545V9.18545C17.3279 9.25545 17.3279 9.39545 17.2579 9.46545C17.1179 10.0254 16.9079 10.4455 16.5579 10.7955C16.2079 11.1455 15.7179 11.2854 15.2279 11.2854C14.8779 11.2854 14.5279 11.1454 14.1779 10.9354ZM16.0679 10.2354C16.2079 10.0254 16.3479 9.74545 16.4179 9.39545V9.04545C16.4179 8.83545 16.3479 8.69545 16.2779 8.55545C16.2164 8.48702 16.1406 8.4328 16.056 8.39654C15.9714 8.36028 15.8799 8.34284 15.7879 8.34545C15.5079 8.34545 15.2979 8.41545 15.1579 8.62545C15.0179 8.83545 14.8779 9.11545 14.8079 9.46545V9.74545C14.8079 9.95545 14.8779 10.0954 14.9479 10.2354C15.0879 10.3754 15.2279 10.4454 15.4379 10.4454C15.7179 10.5154 15.8579 10.4454 16.0679 10.2354ZM22.5779 5.54545H25.0979C25.5879 5.54545 25.9379 5.68545 26.2179 5.89545C26.4979 6.10545 26.5679 6.45545 26.5679 6.80545V7.08545C26.5679 7.15545 26.5679 7.29545 26.4979 7.36545C26.4279 7.85545 26.1479 8.34545 25.7979 8.62545C25.3779 8.97545 24.9579 9.11545 24.3979 9.11545H22.9979L22.5779 11.1454H21.3879L22.5779 5.54545ZM23.1379 8.13545H24.2579C24.5379 8.13545 24.7479 8.06545 24.9579 7.92545C25.0979 7.78545 25.2379 7.57545 25.3079 7.29545V7.01545C25.3079 6.80545 25.2379 6.66545 25.0979 6.59545C24.9579 6.52545 24.7479 6.45545 24.3979 6.45545H23.4879L23.1379 8.13545ZM31.8179 11.8454C31.4679 12.6154 31.1179 13.1054 30.9079 13.3154C30.6979 13.5254 30.2779 14.0154 29.2979 14.0154L29.3679 13.3855C30.2079 13.1055 30.6279 11.9854 30.9079 11.4254L30.6279 7.64545H31.8179L31.8879 10.0254L32.7979 7.71545H33.8479L31.8179 11.8454ZM28.8779 7.99545L28.4579 8.27545C28.0379 7.92545 27.6179 7.71545 26.9179 8.06545C25.9379 8.55545 25.0279 12.1954 27.8279 11.0054L27.9679 11.2154H29.0879L29.7879 7.92545L28.8779 7.99545ZM28.3179 9.81545C28.1079 10.3754 27.7579 10.6554 27.4079 10.5854C27.1279 10.4454 27.0579 9.95545 27.1979 9.39545C27.4079 8.83545 27.7579 8.55545 28.1079 8.62545C28.3879 8.76545 28.4579 9.25545 28.3179 9.81545Z" fill="white"/>
</g>
<defs>
<clipPath id="clip0_72_785">
<rect width="38" height="24" fill="white" transform="translate(0 0.0205078)"/>
</clipPath>
</defs>
</svg>
