<svg width="38" height="25" viewBox="0 0 38 25" fill="none" xmlns="http://www.w3.org/2000/svg">
<g id="Frame" clip-path="url(#clip0_72_791)">
<path id="Vector" opacity="0.07" d="M35 0.0205078H3C1.3 0.0205078 0 1.32051 0 3.02051V21.0205C0 22.7205 1.4 24.0205 3 24.0205H35C36.7 24.0205 38 22.7205 38 21.0205V3.02051C38 1.32051 36.6 0.0205078 35 0.0205078Z" fill="black"/>
<path id="Vector_2" d="M35 1.02051C36.1 1.02051 37 1.92051 37 3.02051V21.0205C37 22.1205 36.1 23.0205 35 23.0205H3C1.9 23.0205 1 22.1205 1 21.0205V3.02051C1 1.92051 1.9 1.02051 3 1.02051H35Z" fill="white"/>
<path id="Vector_3" d="M28.3 10.1205H28C27.6 11.1205 27.3 11.6205 27 13.1205H28.9C28.6 11.6205 28.6 10.9205 28.3 10.1205ZM31.2 16.0205H29.5C29.4 16.0205 29.4 16.0205 29.3 15.9205L29.1 15.0205L29 14.8205H26.6C26.5 14.8205 26.4 14.8205 26.4 15.0205L26.1 15.9205C26.1 16.0205 26 16.0205 26 16.0205H23.9L24.1 15.5205L27 8.72051C27 8.22051 27.3 8.02051 27.8 8.02051H29.3C29.4 8.02051 29.5 8.02051 29.5 8.22051L30.9 14.7205C31 15.1205 31.1 15.4205 31.1 15.8205C31.2 15.9205 31.2 15.9205 31.2 16.0205ZM17.8 15.7205L18.2 13.9205C18.3 13.9205 18.4 14.0205 18.4 14.0205C19.1 14.3205 19.8 14.5205 20.5 14.4205C20.7 14.4205 21 14.3205 21.2 14.2205C21.7 14.0205 21.7 13.5205 21.3 13.1205C21.1 12.9205 20.8 12.8205 20.5 12.6205C20.1 12.4205 19.7 12.2205 19.4 11.9205C18.2 10.9205 18.6 9.52051 19.3 8.82051C19.9 8.42051 20.2 8.02051 21 8.02051C22.2 8.02051 23.5 8.02051 24.1 8.22051H24.2C24.1 8.82051 24 9.32051 23.8 9.92051C23.3 9.72051 22.8 9.52051 22.3 9.52051C22 9.52051 21.7 9.52051 21.4 9.62051C21.2 9.62051 21.1 9.72051 21 9.82051C20.8 10.0205 20.8 10.3205 21 10.5205L21.5 10.9205C21.9 11.1205 22.3 11.3205 22.6 11.5205C23.1 11.8205 23.6 12.3205 23.7 12.9205C23.9 13.8205 23.6 14.6205 22.8 15.2205C22.3 15.6205 22.1 15.8205 21.4 15.8205C20 15.8205 18.9 15.9205 18 15.6205C17.9 15.8205 17.9 15.8205 17.8 15.7205ZM14.3 16.0205C14.4 15.3205 14.4 15.3205 14.5 15.0205C15 12.8205 15.5 10.5205 15.9 8.32051C16 8.12051 16 8.02051 16.2 8.02051H18C17.8 9.22051 17.6 10.1205 17.3 11.2205C17 12.7205 16.7 14.2205 16.3 15.7205C16.3 15.9205 16.2 15.9205 16 15.9205M5 8.22051C5 8.12051 5.2 8.02051 5.3 8.02051H8.7C9.2 8.02051 9.6 8.32051 9.7 8.82051L10.6 13.2205C10.6 13.3205 10.6 13.3205 10.7 13.4205C10.7 13.3205 10.8 13.3205 10.8 13.3205L12.9 8.22051C12.8 8.12051 12.9 8.02051 13 8.02051H15.1C15.1 8.12051 15.1 8.12051 15 8.22051L11.9 15.5205C11.8 15.7205 11.8 15.8205 11.7 15.9205C11.6 16.0205 11.4 15.9205 11.2 15.9205H9.7C9.6 15.9205 9.5 15.9205 9.5 15.7205L7.9 9.52051C7.7 9.32051 7.4 9.02051 7 8.92051C6.4 8.62051 5.3 8.42051 5.1 8.42051L5 8.22051Z" fill="#142688"/>
</g>
<defs>
<clipPath id="clip0_72_791">
<rect width="38" height="24" fill="white" transform="translate(0 0.0205078)"/>
</clipPath>
</defs>
</svg>
