<svg width="28" height="28" viewBox="0 0 28 28" fill="none" xmlns="http://www.w3.org/2000/svg">
<g id="bag">
<path id="ellipse" d="M20.6668 7.19995C20.6668 6.41202 20.4944 5.6318 20.1594 4.90385C19.8243 4.1759 19.3333 3.51446 18.7142 2.95731C18.0952 2.40016 17.3602 1.9582 16.5514 1.65667C15.7425 1.35515 14.8756 1.19995 14.0002 1.19995C13.1247 1.19995 12.2578 1.35515 11.4489 1.65667C10.6401 1.9582 9.90517 2.40016 9.28612 2.95731C8.66706 3.51446 8.176 4.1759 7.84097 4.90385C7.50593 5.6318 7.3335 6.41202 7.3335 7.19995" stroke="#DAD7CD" stroke-width="1.5" stroke-linecap="round"/>
<path id="vector" d="M22.5593 8.09937H5.4494C2.99524 8.09937 1.1198 10.289 1.49691 12.714L3.19175 23.6128C3.49475 25.5612 5.17243 26.9981 7.14425 26.9981H20.8645C22.8363 26.9981 24.514 25.5612 24.817 23.6128L26.5118 12.714C26.889 10.289 25.0135 8.09937 22.5593 8.09937Z" stroke="#DAD7CD" stroke-width="1.5"/>
</g>
</svg>
