<svg width="25" height="25" viewBox="0 0 25 25" fill="none" xmlns="http://www.w3.org/2000/svg">
<g id="instagram">
<path id="Vector" d="M17.2874 2.6123H7.28735C4.52593 2.6123 2.28735 4.85088 2.28735 7.6123V17.6123C2.28735 20.3737 4.52593 22.6123 7.28735 22.6123H17.2874C20.0488 22.6123 22.2874 20.3737 22.2874 17.6123V7.6123C22.2874 4.85088 20.0488 2.6123 17.2874 2.6123Z" stroke="#DAD7CD" stroke-width="2" stroke-linecap="round" stroke-linejoin="round"/>
<path id="Vector_2" d="M16.2873 11.9821C16.4107 12.8144 16.2686 13.6643 15.8811 14.4111C15.4936 15.1579 14.8805 15.7635 14.1289 16.1418C13.3774 16.5201 12.5258 16.6517 11.6951 16.5181C10.8644 16.3844 10.0971 15.9922 9.50214 15.3973C8.90722 14.8024 8.51504 14.035 8.38137 13.2043C8.24771 12.3737 8.37937 11.522 8.75763 10.7705C9.13589 10.019 9.74149 9.40586 10.4883 9.01836C11.2351 8.63086 12.0851 8.48871 12.9173 8.61212C13.7662 8.738 14.5522 9.13358 15.159 9.74042C15.7658 10.3473 16.1614 11.1332 16.2873 11.9821Z" stroke="#DAD7CD" stroke-width="2" stroke-linecap="round" stroke-linejoin="round"/>
<path id="Vector_3" d="M17.7874 7.1123H17.7974" stroke="#DAD7CD" stroke-width="2" stroke-linecap="round" stroke-linejoin="round"/>
</g>
</svg>
