<svg width="25" height="25" viewBox="0 0 25 25" fill="none" xmlns="http://www.w3.org/2000/svg">
<g id="twitter" clip-path="url(#clip0_71_126)">
<path id="Vector" d="M23.2874 3.61211C22.3297 4.28758 21.2695 4.80422 20.1474 5.14211C19.5451 4.44962 18.7447 3.9588 17.8544 3.73603C16.9641 3.51327 16.0268 3.5693 15.1694 3.89656C14.312 4.22382 13.5758 4.80651 13.0603 5.56582C12.5449 6.32514 12.2751 7.22444 12.2874 8.14211V9.14211C10.53 9.18767 8.78863 8.79792 7.21836 8.00755C5.6481 7.21719 4.29767 6.05074 3.28735 4.61211C3.28735 4.61211 -0.712646 13.6121 8.28735 17.6121C6.22788 19.0101 3.77451 19.711 1.28735 19.6121C10.2874 24.6121 21.2874 19.6121 21.2874 8.11211C21.2864 7.83356 21.2597 7.5557 21.2074 7.28211C22.228 6.2756 22.9482 5.00482 23.2874 3.61211V3.61211Z" stroke="#DAD7CD" stroke-width="2" stroke-linecap="round" stroke-linejoin="round"/>
</g>
<defs>
<clipPath id="clip0_71_126">
<rect width="24" height="24" fill="white" transform="translate(0.287354 0.612305)"/>
</clipPath>
</defs>
</svg>
