<svg width="25" height="25" viewBox="0 0 25 25" fill="none" xmlns="http://www.w3.org/2000/svg">
<g id="youtube" clip-path="url(#clip0_71_136)">
<path id="Vector" d="M22.8273 7.0323C22.7085 6.55771 22.4666 6.12288 22.126 5.77171C21.7853 5.42055 21.3581 5.16549 20.8873 5.0323C19.1673 4.6123 12.2873 4.6123 12.2873 4.6123C12.2873 4.6123 5.40732 4.6123 3.68731 5.0723C3.21656 5.20549 2.78929 5.46055 2.44866 5.81171C2.10803 6.16288 1.8661 6.59771 1.74731 7.0723C1.43253 8.81786 1.27855 10.5886 1.28731 12.3623C1.27609 14.1493 1.43008 15.9336 1.74731 17.6923C1.87827 18.1522 2.12562 18.5705 2.46546 18.9068C2.8053 19.2431 3.22614 19.4861 3.68731 19.6123C5.40732 20.0723 12.2873 20.0723 12.2873 20.0723C12.2873 20.0723 19.1673 20.0723 20.8873 19.6123C21.3581 19.4791 21.7853 19.2241 22.126 18.8729C22.4666 18.5217 22.7085 18.0869 22.8273 17.6123C23.1397 15.8799 23.2936 14.1226 23.2873 12.3623C23.2985 10.5753 23.1445 8.791 22.8273 7.0323V7.0323Z" stroke="#DAD7CD" stroke-width="2" stroke-linecap="round" stroke-linejoin="round"/>
<path id="Vector_2" d="M10.0374 15.6323L15.7874 12.3623L10.0374 9.09229V15.6323Z" stroke="#DAD7CD" stroke-width="2" stroke-linecap="round" stroke-linejoin="round"/>
</g>
<defs>
<clipPath id="clip0_71_136">
<rect width="24" height="24" fill="white" transform="translate(0.287354 0.612305)"/>
</clipPath>
</defs>
</svg>
